<mxfile host="Electron" modified="2023-12-13T15:26:24.949Z" agent="Mozilla/5.0 (Windows NT 10.0; Win64; x64) AppleWebKit/537.36 (KHTML, like Gecko) draw.io/22.1.2 Chrome/114.0.5735.289 Electron/25.9.4 Safari/537.36" etag="ybQ8pQ2wfUD4G97_geVK" version="22.1.2" type="device">
  <diagram name="Page-1" id="zJldkYBYHgbcQEH3RX-s">
    <mxGraphModel dx="2412" dy="820" grid="1" gridSize="10" guides="1" tooltips="1" connect="1" arrows="1" fold="1" page="1" pageScale="1" pageWidth="850" pageHeight="1100" math="0" shadow="0">
      <root>
        <mxCell id="0" />
        <mxCell id="1" parent="0" />
        <mxCell id="nY6Hwenrywpzz9oTOzUi-1" value="&lt;span style=&quot;font-size: 24px;&quot;&gt;Customer&lt;/span&gt;" style="shape=umlActor;verticalLabelPosition=bottom;verticalAlign=top;html=1;outlineConnect=0;" parent="1" vertex="1">
          <mxGeometry x="110" y="330" width="50" height="110" as="geometry" />
        </mxCell>
        <mxCell id="nY6Hwenrywpzz9oTOzUi-2" value="&lt;span style=&quot;font-size: 24px;&quot;&gt;:Giao diện&lt;/span&gt;" style="html=1;whiteSpace=wrap;" parent="1" vertex="1">
          <mxGeometry x="370" y="350" width="180" height="70" as="geometry" />
        </mxCell>
        <mxCell id="nY6Hwenrywpzz9oTOzUi-3" value="&lt;font style=&quot;font-size: 24px;&quot;&gt;:hệ thống&lt;/font&gt;" style="html=1;whiteSpace=wrap;" parent="1" vertex="1">
          <mxGeometry x="800" y="350" width="160" height="70" as="geometry" />
        </mxCell>
        <mxCell id="nY6Hwenrywpzz9oTOzUi-4" value="" style="endArrow=none;html=1;rounded=0;entryX=0.5;entryY=0.5;entryDx=0;entryDy=0;entryPerimeter=0;" parent="1" source="nY6Hwenrywpzz9oTOzUi-2" target="nY6Hwenrywpzz9oTOzUi-1" edge="1">
          <mxGeometry width="50" height="50" relative="1" as="geometry">
            <mxPoint x="490" y="540" as="sourcePoint" />
            <mxPoint x="540" y="490" as="targetPoint" />
          </mxGeometry>
        </mxCell>
        <mxCell id="nY6Hwenrywpzz9oTOzUi-5" value="" style="endArrow=none;html=1;rounded=0;" parent="1" source="nY6Hwenrywpzz9oTOzUi-2" target="nY6Hwenrywpzz9oTOzUi-3" edge="1">
          <mxGeometry width="50" height="50" relative="1" as="geometry">
            <mxPoint x="490" y="540" as="sourcePoint" />
            <mxPoint x="540" y="490" as="targetPoint" />
          </mxGeometry>
        </mxCell>
        <mxCell id="nY6Hwenrywpzz9oTOzUi-6" value="" style="html=1;verticalAlign=bottom;endArrow=block;curved=0;rounded=0;" parent="1" edge="1">
          <mxGeometry width="80" relative="1" as="geometry">
            <mxPoint x="210" y="370" as="sourcePoint" />
            <mxPoint x="330" y="370" as="targetPoint" />
            <mxPoint as="offset" />
          </mxGeometry>
        </mxCell>
        <mxCell id="nY6Hwenrywpzz9oTOzUi-9" value="&lt;font style=&quot;font-size: 14px;&quot;&gt;1. InputQuanity&lt;/font&gt;()" style="text;html=1;strokeColor=none;fillColor=none;align=center;verticalAlign=middle;whiteSpace=wrap;rounded=0;" parent="1" vertex="1">
          <mxGeometry x="205" y="340" width="120" height="30" as="geometry" />
        </mxCell>
        <mxCell id="nY6Hwenrywpzz9oTOzUi-12" value="" style="html=1;verticalAlign=bottom;endArrow=block;curved=0;rounded=0;" parent="1" edge="1">
          <mxGeometry width="80" relative="1" as="geometry">
            <mxPoint x="590" y="370" as="sourcePoint" />
            <mxPoint x="760" y="370" as="targetPoint" />
          </mxGeometry>
        </mxCell>
        <mxCell id="nY6Hwenrywpzz9oTOzUi-14" value="&lt;font style=&quot;font-size: 14px;&quot;&gt;2. RequestNewQuanity()&lt;/font&gt;" style="text;html=1;strokeColor=none;fillColor=none;align=center;verticalAlign=middle;whiteSpace=wrap;rounded=0;" parent="1" vertex="1">
          <mxGeometry x="600" y="340" width="160" height="30" as="geometry" />
        </mxCell>
        <mxCell id="nY6Hwenrywpzz9oTOzUi-15" value="" style="html=1;verticalAlign=bottom;endArrow=block;curved=0;rounded=0;entryX=0.75;entryY=0;entryDx=0;entryDy=0;" parent="1" target="nY6Hwenrywpzz9oTOzUi-3" edge="1">
          <mxGeometry width="80" relative="1" as="geometry">
            <mxPoint x="960" y="380" as="sourcePoint" />
            <mxPoint x="930" y="210" as="targetPoint" />
            <Array as="points">
              <mxPoint x="1000" y="380" />
              <mxPoint x="1000" y="280" />
              <mxPoint x="920" y="280" />
            </Array>
          </mxGeometry>
        </mxCell>
        <mxCell id="nY6Hwenrywpzz9oTOzUi-16" value="&lt;font style=&quot;font-size: 14px;&quot;&gt;3.&lt;font style=&quot;&quot;&gt;CheckQuanity&lt;/font&gt;()&lt;/font&gt;" style="text;html=1;strokeColor=none;fillColor=none;align=center;verticalAlign=middle;whiteSpace=wrap;rounded=0;" parent="1" vertex="1">
          <mxGeometry x="940" y="250" width="60" height="30" as="geometry" />
        </mxCell>
        <mxCell id="nY6Hwenrywpzz9oTOzUi-17" value="&lt;font style=&quot;font-size: 14px;&quot;&gt;4. returnQuanity&lt;/font&gt;" style="html=1;verticalAlign=bottom;endArrow=open;dashed=1;endSize=8;curved=0;rounded=0;" parent="1" edge="1">
          <mxGeometry relative="1" as="geometry">
            <mxPoint x="755" y="440" as="sourcePoint" />
            <mxPoint x="605" y="440" as="targetPoint" />
            <mxPoint as="offset" />
          </mxGeometry>
        </mxCell>
        <mxCell id="nY6Hwenrywpzz9oTOzUi-20" value="&lt;font style=&quot;font-size: 14px;&quot;&gt;5. returnNotification&lt;/font&gt;" style="text;html=1;strokeColor=none;fillColor=none;align=center;verticalAlign=middle;whiteSpace=wrap;rounded=0;" parent="1" vertex="1">
          <mxGeometry x="600" y="390" width="170" height="30" as="geometry" />
        </mxCell>
        <mxCell id="nY6Hwenrywpzz9oTOzUi-21" value="&lt;span style=&quot;font-size: 24px;&quot;&gt;Customer&lt;/span&gt;" style="shape=umlActor;verticalLabelPosition=bottom;verticalAlign=top;html=1;outlineConnect=0;" parent="1" vertex="1">
          <mxGeometry x="410" y="820" width="50" height="110" as="geometry" />
        </mxCell>
        <mxCell id="nY6Hwenrywpzz9oTOzUi-22" value="&lt;span style=&quot;font-size: 24px;&quot;&gt;:Giao diện&lt;/span&gt;" style="html=1;whiteSpace=wrap;" parent="1" vertex="1">
          <mxGeometry x="700" y="840" width="180" height="70" as="geometry" />
        </mxCell>
        <mxCell id="nY6Hwenrywpzz9oTOzUi-23" value="&lt;font style=&quot;font-size: 24px;&quot;&gt;:hệ thống&lt;/font&gt;" style="html=1;whiteSpace=wrap;" parent="1" vertex="1">
          <mxGeometry x="1193" y="840" width="165" height="70" as="geometry" />
        </mxCell>
        <mxCell id="nY6Hwenrywpzz9oTOzUi-24" value="" style="endArrow=none;html=1;rounded=0;entryX=0.5;entryY=0.5;entryDx=0;entryDy=0;entryPerimeter=0;" parent="1" source="nY6Hwenrywpzz9oTOzUi-22" target="nY6Hwenrywpzz9oTOzUi-21" edge="1">
          <mxGeometry width="50" height="50" relative="1" as="geometry">
            <mxPoint x="790" y="1030" as="sourcePoint" />
            <mxPoint x="840" y="980" as="targetPoint" />
          </mxGeometry>
        </mxCell>
        <mxCell id="nY6Hwenrywpzz9oTOzUi-25" value="" style="endArrow=none;html=1;rounded=0;" parent="1" source="nY6Hwenrywpzz9oTOzUi-22" target="nY6Hwenrywpzz9oTOzUi-23" edge="1">
          <mxGeometry width="50" height="50" relative="1" as="geometry">
            <mxPoint x="790" y="1030" as="sourcePoint" />
            <mxPoint x="840" y="980" as="targetPoint" />
          </mxGeometry>
        </mxCell>
        <mxCell id="nY6Hwenrywpzz9oTOzUi-26" value="" style="html=1;verticalAlign=bottom;endArrow=block;curved=0;rounded=0;" parent="1" edge="1">
          <mxGeometry width="80" relative="1" as="geometry">
            <mxPoint x="510" y="860" as="sourcePoint" />
            <mxPoint x="670" y="860" as="targetPoint" />
            <mxPoint as="offset" />
          </mxGeometry>
        </mxCell>
        <mxCell id="nY6Hwenrywpzz9oTOzUi-27" value="&lt;font style=&quot;font-size: 14px;&quot;&gt;1. TouchButtomCheckInfo()&lt;/font&gt;" style="text;html=1;strokeColor=none;fillColor=none;align=center;verticalAlign=middle;whiteSpace=wrap;rounded=0;" parent="1" vertex="1">
          <mxGeometry x="505" y="810" width="195" height="30" as="geometry" />
        </mxCell>
        <mxCell id="nY6Hwenrywpzz9oTOzUi-28" value="&lt;span style=&quot;font-size: 14px;&quot;&gt;3. InputInfo()&lt;/span&gt;" style="text;html=1;align=center;verticalAlign=middle;resizable=0;points=[];autosize=1;strokeColor=none;fillColor=none;" parent="1" vertex="1">
          <mxGeometry x="540" y="830" width="100" height="30" as="geometry" />
        </mxCell>
        <mxCell id="nY6Hwenrywpzz9oTOzUi-29" value="" style="html=1;verticalAlign=bottom;endArrow=block;curved=0;rounded=0;" parent="1" edge="1">
          <mxGeometry width="80" relative="1" as="geometry">
            <mxPoint x="970" y="860" as="sourcePoint" />
            <mxPoint x="1140" y="860" as="targetPoint" />
          </mxGeometry>
        </mxCell>
        <mxCell id="nY6Hwenrywpzz9oTOzUi-30" value="&lt;font style=&quot;font-size: 14px;&quot;&gt;4. RequestInfo()&lt;/font&gt;" style="text;html=1;strokeColor=none;fillColor=none;align=center;verticalAlign=middle;whiteSpace=wrap;rounded=0;" parent="1" vertex="1">
          <mxGeometry x="1000" y="830" width="110" height="30" as="geometry" />
        </mxCell>
        <mxCell id="nY6Hwenrywpzz9oTOzUi-36" value="" style="html=1;verticalAlign=bottom;endArrow=block;curved=0;rounded=0;exitX=1;exitY=0.25;exitDx=0;exitDy=0;" parent="1" edge="1">
          <mxGeometry width="80" relative="1" as="geometry">
            <mxPoint x="880" y="859.5" as="sourcePoint" />
            <mxPoint x="850" y="840" as="targetPoint" />
            <mxPoint as="offset" />
            <Array as="points">
              <mxPoint x="920" y="860" />
              <mxPoint x="920" y="760" />
              <mxPoint x="850" y="760" />
            </Array>
          </mxGeometry>
        </mxCell>
        <mxCell id="nY6Hwenrywpzz9oTOzUi-38" value="" style="html=1;verticalAlign=bottom;endArrow=block;curved=0;rounded=0;entryX=0.777;entryY=-0.02;entryDx=0;entryDy=0;entryPerimeter=0;" parent="1" target="nY6Hwenrywpzz9oTOzUi-23" edge="1">
          <mxGeometry width="80" relative="1" as="geometry">
            <mxPoint x="1358" y="859.7078189300412" as="sourcePoint" />
            <mxPoint x="1320" y="803" as="targetPoint" />
            <mxPoint as="offset" />
            <Array as="points">
              <mxPoint x="1400" y="860" />
              <mxPoint x="1400" y="753" />
              <mxPoint x="1320" y="753" />
            </Array>
          </mxGeometry>
        </mxCell>
        <mxCell id="nY6Hwenrywpzz9oTOzUi-39" value="&lt;span style=&quot;font-size: 14px;&quot;&gt;2. DisplayInputInfo()&lt;/span&gt;" style="text;html=1;strokeColor=none;fillColor=none;align=center;verticalAlign=middle;whiteSpace=wrap;rounded=0;" parent="1" vertex="1">
          <mxGeometry x="800" y="730" width="195" height="30" as="geometry" />
        </mxCell>
        <mxCell id="nY6Hwenrywpzz9oTOzUi-40" value="&lt;font style=&quot;font-size: 14px;&quot;&gt;5. CheckInfo()&lt;/font&gt;" style="text;html=1;strokeColor=none;fillColor=none;align=center;verticalAlign=middle;whiteSpace=wrap;rounded=0;" parent="1" vertex="1">
          <mxGeometry x="1290" y="700" width="140" height="30" as="geometry" />
        </mxCell>
        <mxCell id="nY6Hwenrywpzz9oTOzUi-41" value="&lt;font style=&quot;font-size: 14px;&quot;&gt;6. saveInfo()&lt;/font&gt;" style="text;html=1;strokeColor=none;fillColor=none;align=center;verticalAlign=middle;whiteSpace=wrap;rounded=0;" parent="1" vertex="1">
          <mxGeometry x="1290" y="720" width="140" height="30" as="geometry" />
        </mxCell>
        <mxCell id="nY6Hwenrywpzz9oTOzUi-43" value="&lt;font style=&quot;font-size: 14px;&quot;&gt;7.&amp;nbsp; DisplayOrderPage()&lt;/font&gt;" style="html=1;verticalAlign=bottom;endArrow=block;curved=0;rounded=0;" parent="1" edge="1">
          <mxGeometry width="80" relative="1" as="geometry">
            <mxPoint x="675" y="909.17" as="sourcePoint" />
            <mxPoint x="505" y="909.17" as="targetPoint" />
            <Array as="points" />
          </mxGeometry>
        </mxCell>
        <mxCell id="nY6Hwenrywpzz9oTOzUi-44" value="&lt;span style=&quot;font-size: 24px;&quot;&gt;Admin&lt;/span&gt;" style="shape=umlActor;verticalLabelPosition=bottom;verticalAlign=top;html=1;outlineConnect=0;" parent="1" vertex="1">
          <mxGeometry x="-1230" y="970" width="50" height="110" as="geometry" />
        </mxCell>
        <mxCell id="nY6Hwenrywpzz9oTOzUi-45" value="&lt;span style=&quot;font-size: 24px;&quot;&gt;:Giao diện&lt;/span&gt;" style="html=1;whiteSpace=wrap;" parent="1" vertex="1">
          <mxGeometry x="-940" y="990" width="180" height="70" as="geometry" />
        </mxCell>
        <mxCell id="nY6Hwenrywpzz9oTOzUi-46" value="&lt;font style=&quot;font-size: 24px;&quot;&gt;:hệ thống&lt;/font&gt;" style="html=1;whiteSpace=wrap;" parent="1" vertex="1">
          <mxGeometry x="-447" y="990" width="165" height="70" as="geometry" />
        </mxCell>
        <mxCell id="nY6Hwenrywpzz9oTOzUi-47" value="" style="endArrow=none;html=1;rounded=0;entryX=0.5;entryY=0.5;entryDx=0;entryDy=0;entryPerimeter=0;" parent="1" source="nY6Hwenrywpzz9oTOzUi-45" target="nY6Hwenrywpzz9oTOzUi-44" edge="1">
          <mxGeometry width="50" height="50" relative="1" as="geometry">
            <mxPoint x="-850" y="1180" as="sourcePoint" />
            <mxPoint x="-800" y="1130" as="targetPoint" />
          </mxGeometry>
        </mxCell>
        <mxCell id="nY6Hwenrywpzz9oTOzUi-48" value="" style="endArrow=none;html=1;rounded=0;" parent="1" source="nY6Hwenrywpzz9oTOzUi-45" target="nY6Hwenrywpzz9oTOzUi-46" edge="1">
          <mxGeometry width="50" height="50" relative="1" as="geometry">
            <mxPoint x="-850" y="1180" as="sourcePoint" />
            <mxPoint x="-800" y="1130" as="targetPoint" />
          </mxGeometry>
        </mxCell>
        <mxCell id="nY6Hwenrywpzz9oTOzUi-49" value="" style="html=1;verticalAlign=bottom;endArrow=block;curved=0;rounded=0;" parent="1" edge="1">
          <mxGeometry width="80" relative="1" as="geometry">
            <mxPoint x="-1130" y="1010" as="sourcePoint" />
            <mxPoint x="-970" y="1010" as="targetPoint" />
            <mxPoint as="offset" />
          </mxGeometry>
        </mxCell>
        <mxCell id="nY6Hwenrywpzz9oTOzUi-50" value="&lt;font style=&quot;font-size: 14px;&quot;&gt;1. TouchButtomAddProduct()&lt;/font&gt;" style="text;html=1;strokeColor=none;fillColor=none;align=center;verticalAlign=middle;whiteSpace=wrap;rounded=0;" parent="1" vertex="1">
          <mxGeometry x="-1135" y="960" width="195" height="30" as="geometry" />
        </mxCell>
        <mxCell id="nY6Hwenrywpzz9oTOzUi-51" value="&lt;span style=&quot;font-size: 14px;&quot;&gt;3. InputProduct()&lt;/span&gt;" style="text;html=1;align=center;verticalAlign=middle;resizable=0;points=[];autosize=1;strokeColor=none;fillColor=none;" parent="1" vertex="1">
          <mxGeometry x="-1115" y="980" width="130" height="30" as="geometry" />
        </mxCell>
        <mxCell id="nY6Hwenrywpzz9oTOzUi-52" value="" style="html=1;verticalAlign=bottom;endArrow=block;curved=0;rounded=0;" parent="1" edge="1">
          <mxGeometry width="80" relative="1" as="geometry">
            <mxPoint x="-670" y="1010" as="sourcePoint" />
            <mxPoint x="-500" y="1010" as="targetPoint" />
          </mxGeometry>
        </mxCell>
        <mxCell id="nY6Hwenrywpzz9oTOzUi-53" value="&lt;font style=&quot;font-size: 14px;&quot;&gt;4. RequestInfoProduct()&lt;/font&gt;" style="text;html=1;strokeColor=none;fillColor=none;align=center;verticalAlign=middle;whiteSpace=wrap;rounded=0;" parent="1" vertex="1">
          <mxGeometry x="-665" y="980" width="170" height="30" as="geometry" />
        </mxCell>
        <mxCell id="nY6Hwenrywpzz9oTOzUi-54" value="" style="html=1;verticalAlign=bottom;endArrow=block;curved=0;rounded=0;exitX=1;exitY=0.25;exitDx=0;exitDy=0;" parent="1" edge="1">
          <mxGeometry width="80" relative="1" as="geometry">
            <mxPoint x="-760" y="1009.5" as="sourcePoint" />
            <mxPoint x="-790" y="990" as="targetPoint" />
            <mxPoint as="offset" />
            <Array as="points">
              <mxPoint x="-720" y="1010" />
              <mxPoint x="-720" y="910" />
              <mxPoint x="-790" y="910" />
            </Array>
          </mxGeometry>
        </mxCell>
        <mxCell id="nY6Hwenrywpzz9oTOzUi-55" value="" style="html=1;verticalAlign=bottom;endArrow=block;curved=0;rounded=0;entryX=0.777;entryY=-0.02;entryDx=0;entryDy=0;entryPerimeter=0;" parent="1" target="nY6Hwenrywpzz9oTOzUi-46" edge="1">
          <mxGeometry width="80" relative="1" as="geometry">
            <mxPoint x="-282" y="1009.7078189300412" as="sourcePoint" />
            <mxPoint x="-320" y="953" as="targetPoint" />
            <mxPoint as="offset" />
            <Array as="points">
              <mxPoint x="-240" y="1010" />
              <mxPoint x="-240" y="903" />
              <mxPoint x="-320" y="903" />
            </Array>
          </mxGeometry>
        </mxCell>
        <mxCell id="nY6Hwenrywpzz9oTOzUi-56" value="&lt;span style=&quot;font-size: 14px;&quot;&gt;2. DisplayAddProductForm()&lt;/span&gt;" style="text;html=1;strokeColor=none;fillColor=none;align=center;verticalAlign=middle;whiteSpace=wrap;rounded=0;" parent="1" vertex="1">
          <mxGeometry x="-850" y="870" width="195" height="30" as="geometry" />
        </mxCell>
        <mxCell id="nY6Hwenrywpzz9oTOzUi-57" value="&lt;font style=&quot;font-size: 14px;&quot;&gt;5. CheckInfoProduct()&lt;/font&gt;" style="text;html=1;strokeColor=none;fillColor=none;align=center;verticalAlign=middle;whiteSpace=wrap;rounded=0;" parent="1" vertex="1">
          <mxGeometry x="-350" y="850" width="140" height="30" as="geometry" />
        </mxCell>
        <mxCell id="nY6Hwenrywpzz9oTOzUi-58" value="&lt;font style=&quot;font-size: 14px;&quot;&gt;6. saveInfoProduct()&lt;/font&gt;" style="text;html=1;strokeColor=none;fillColor=none;align=center;verticalAlign=middle;whiteSpace=wrap;rounded=0;" parent="1" vertex="1">
          <mxGeometry x="-350" y="870" width="140" height="30" as="geometry" />
        </mxCell>
        <mxCell id="nY6Hwenrywpzz9oTOzUi-59" value="&lt;font style=&quot;font-size: 14px;&quot;&gt;8.&amp;nbsp; DisplayAddProductPage()&lt;/font&gt;" style="html=1;verticalAlign=bottom;endArrow=block;curved=0;rounded=0;" parent="1" edge="1">
          <mxGeometry x="-0.0035" width="80" relative="1" as="geometry">
            <mxPoint x="-965" y="1059.17" as="sourcePoint" />
            <mxPoint x="-1135" y="1059.17" as="targetPoint" />
            <Array as="points" />
            <mxPoint as="offset" />
          </mxGeometry>
        </mxCell>
        <mxCell id="nY6Hwenrywpzz9oTOzUi-60" value="&lt;span style=&quot;font-size: 24px;&quot;&gt;Admin&lt;/span&gt;" style="shape=umlActor;verticalLabelPosition=bottom;verticalAlign=top;html=1;outlineConnect=0;" parent="1" vertex="1">
          <mxGeometry x="-1540" y="340" width="50" height="110" as="geometry" />
        </mxCell>
        <mxCell id="nY6Hwenrywpzz9oTOzUi-61" value="&lt;span style=&quot;font-size: 24px;&quot;&gt;:Giao diện&lt;/span&gt;" style="html=1;whiteSpace=wrap;" parent="1" vertex="1">
          <mxGeometry x="-1250" y="360" width="180" height="70" as="geometry" />
        </mxCell>
        <mxCell id="nY6Hwenrywpzz9oTOzUi-62" value="&lt;font style=&quot;font-size: 24px;&quot;&gt;:hệ thống&lt;/font&gt;" style="html=1;whiteSpace=wrap;" parent="1" vertex="1">
          <mxGeometry x="-757" y="360" width="165" height="70" as="geometry" />
        </mxCell>
        <mxCell id="nY6Hwenrywpzz9oTOzUi-63" value="" style="endArrow=none;html=1;rounded=0;entryX=0.5;entryY=0.5;entryDx=0;entryDy=0;entryPerimeter=0;" parent="1" source="nY6Hwenrywpzz9oTOzUi-61" target="nY6Hwenrywpzz9oTOzUi-60" edge="1">
          <mxGeometry width="50" height="50" relative="1" as="geometry">
            <mxPoint x="-1160" y="550" as="sourcePoint" />
            <mxPoint x="-1110" y="500" as="targetPoint" />
          </mxGeometry>
        </mxCell>
        <mxCell id="nY6Hwenrywpzz9oTOzUi-64" value="" style="endArrow=none;html=1;rounded=0;" parent="1" source="nY6Hwenrywpzz9oTOzUi-61" target="nY6Hwenrywpzz9oTOzUi-62" edge="1">
          <mxGeometry width="50" height="50" relative="1" as="geometry">
            <mxPoint x="-1160" y="550" as="sourcePoint" />
            <mxPoint x="-1110" y="500" as="targetPoint" />
          </mxGeometry>
        </mxCell>
        <mxCell id="nY6Hwenrywpzz9oTOzUi-65" value="" style="html=1;verticalAlign=bottom;endArrow=block;curved=0;rounded=0;" parent="1" edge="1">
          <mxGeometry width="80" relative="1" as="geometry">
            <mxPoint x="-1440" y="380" as="sourcePoint" />
            <mxPoint x="-1280" y="380" as="targetPoint" />
            <mxPoint as="offset" />
          </mxGeometry>
        </mxCell>
        <mxCell id="nY6Hwenrywpzz9oTOzUi-67" value="&lt;span style=&quot;font-size: 14px;&quot;&gt;1. DeleteProduct()&lt;/span&gt;" style="text;html=1;align=center;verticalAlign=middle;resizable=0;points=[];autosize=1;strokeColor=none;fillColor=none;" parent="1" vertex="1">
          <mxGeometry x="-1430" y="350" width="140" height="30" as="geometry" />
        </mxCell>
        <mxCell id="nY6Hwenrywpzz9oTOzUi-68" value="" style="html=1;verticalAlign=bottom;endArrow=block;curved=0;rounded=0;" parent="1" edge="1">
          <mxGeometry width="80" relative="1" as="geometry">
            <mxPoint x="-980" y="380" as="sourcePoint" />
            <mxPoint x="-810" y="380" as="targetPoint" />
          </mxGeometry>
        </mxCell>
        <mxCell id="nY6Hwenrywpzz9oTOzUi-69" value="&lt;font style=&quot;font-size: 14px;&quot;&gt;2. RequestDeletaProduct()&lt;/font&gt;" style="text;html=1;strokeColor=none;fillColor=none;align=center;verticalAlign=middle;whiteSpace=wrap;rounded=0;" parent="1" vertex="1">
          <mxGeometry x="-985" y="350" width="180" height="30" as="geometry" />
        </mxCell>
        <mxCell id="nY6Hwenrywpzz9oTOzUi-71" value="" style="html=1;verticalAlign=bottom;endArrow=block;curved=0;rounded=0;entryX=0.777;entryY=-0.02;entryDx=0;entryDy=0;entryPerimeter=0;" parent="1" target="nY6Hwenrywpzz9oTOzUi-62" edge="1">
          <mxGeometry width="80" relative="1" as="geometry">
            <mxPoint x="-592" y="379.7078189300412" as="sourcePoint" />
            <mxPoint x="-630" y="323" as="targetPoint" />
            <mxPoint as="offset" />
            <Array as="points">
              <mxPoint x="-550" y="380" />
              <mxPoint x="-550" y="273" />
              <mxPoint x="-630" y="273" />
            </Array>
          </mxGeometry>
        </mxCell>
        <mxCell id="nY6Hwenrywpzz9oTOzUi-73" value="&lt;font style=&quot;font-size: 14px;&quot;&gt;3. DeleteProductInDB()&lt;/font&gt;" style="text;html=1;strokeColor=none;fillColor=none;align=center;verticalAlign=middle;whiteSpace=wrap;rounded=0;" parent="1" vertex="1">
          <mxGeometry x="-660" y="240" width="170" height="30" as="geometry" />
        </mxCell>
        <mxCell id="nY6Hwenrywpzz9oTOzUi-75" value="&lt;font style=&quot;font-size: 14px;&quot;&gt;5.&amp;nbsp; DisplayListProductPage()&lt;/font&gt;" style="html=1;verticalAlign=bottom;endArrow=block;curved=0;rounded=0;" parent="1" edge="1">
          <mxGeometry width="80" relative="1" as="geometry">
            <mxPoint x="-1275" y="429.16999999999996" as="sourcePoint" />
            <mxPoint x="-1445" y="429.16999999999996" as="targetPoint" />
            <Array as="points" />
            <mxPoint as="offset" />
          </mxGeometry>
        </mxCell>
        <mxCell id="3TYOsQNMdkvaUPFhT0Jg-2" value="" style="html=1;verticalAlign=bottom;endArrow=open;dashed=1;endSize=8;curved=0;rounded=0;" parent="1" edge="1">
          <mxGeometry relative="1" as="geometry">
            <mxPoint x="-520" y="1070" as="sourcePoint" />
            <mxPoint x="-660" y="1070" as="targetPoint" />
            <mxPoint as="offset" />
          </mxGeometry>
        </mxCell>
        <mxCell id="3TYOsQNMdkvaUPFhT0Jg-3" value="&lt;span style=&quot;color: rgb(0, 0, 0); font-family: Helvetica; font-size: 14px; font-style: normal; font-variant-ligatures: normal; font-variant-caps: normal; font-weight: 400; letter-spacing: normal; orphans: 2; text-align: center; text-indent: 0px; text-transform: none; widows: 2; word-spacing: 0px; -webkit-text-stroke-width: 0px; background-color: rgb(251, 251, 251); text-decoration-thickness: initial; text-decoration-style: initial; text-decoration-color: initial; float: none; display: inline !important;&quot;&gt;7. returnNotification&lt;/span&gt;" style="text;whiteSpace=wrap;html=1;" parent="1" vertex="1">
          <mxGeometry x="-660" y="1040" width="150" height="40" as="geometry" />
        </mxCell>
        <mxCell id="3TYOsQNMdkvaUPFhT0Jg-4" value="&lt;font style=&quot;font-size: 14px;&quot;&gt;4. NewData&lt;/font&gt;" style="html=1;verticalAlign=bottom;endArrow=open;dashed=1;endSize=8;curved=0;rounded=0;" parent="1" edge="1">
          <mxGeometry relative="1" as="geometry">
            <mxPoint x="-825" y="420" as="sourcePoint" />
            <mxPoint x="-965" y="420" as="targetPoint" />
          </mxGeometry>
        </mxCell>
        <mxCell id="up8StvK1n3oogdvTK3wd-4" value="&lt;font style=&quot;font-size: 14px;&quot;&gt;6. displayNotification()&lt;/font&gt;" style="html=1;verticalAlign=bottom;endArrow=block;curved=0;rounded=0;" edge="1" parent="1">
          <mxGeometry width="80" relative="1" as="geometry">
            <mxPoint x="350" y="420" as="sourcePoint" />
            <mxPoint x="180" y="419" as="targetPoint" />
          </mxGeometry>
        </mxCell>
      </root>
    </mxGraphModel>
  </diagram>
</mxfile>
